<mxfile host="app.diagrams.net" modified="2024-02-07T01:31:16.203Z" agent="Mozilla/5.0 (Windows NT 10.0; Win64; x64; rv:121.0) Gecko/20100101 Firefox/121.0" etag="SWWpqYQmQR0WBnzdz0df" version="23.1.1" type="device">
  <diagram name="Page-1" id="vrk2LWkrv57RBqLZOv8F">
    <mxGraphModel dx="1434" dy="819" grid="1" gridSize="10" guides="1" tooltips="1" connect="1" arrows="1" fold="1" page="1" pageScale="1" pageWidth="850" pageHeight="1100" math="0" shadow="0">
      <root>
        <mxCell id="0" />
        <mxCell id="1" parent="0" />
        <mxCell id="jLDSJorWT17VZWi5J70o-1" value="C" style="rounded=0;whiteSpace=wrap;html=1;fontSize=24;" vertex="1" parent="1">
          <mxGeometry x="470" y="180" width="90" height="80" as="geometry" />
        </mxCell>
        <mxCell id="jLDSJorWT17VZWi5J70o-3" value="F1" style="rounded=0;whiteSpace=wrap;html=1;fontSize=24;" vertex="1" parent="1">
          <mxGeometry x="605" y="200" width="60" height="40" as="geometry" />
        </mxCell>
        <mxCell id="jLDSJorWT17VZWi5J70o-4" value="&lt;div&gt;Driver&lt;/div&gt;&lt;div&gt;/motor&lt;/div&gt;" style="rounded=0;whiteSpace=wrap;html=1;fontSize=24;" vertex="1" parent="1">
          <mxGeometry x="722.5" y="185" width="80" height="70" as="geometry" />
        </mxCell>
        <mxCell id="jLDSJorWT17VZWi5J70o-5" value="G" style="rounded=0;whiteSpace=wrap;html=1;fontSize=24;" vertex="1" parent="1">
          <mxGeometry x="840" y="180" width="90" height="80" as="geometry" />
        </mxCell>
        <mxCell id="jLDSJorWT17VZWi5J70o-6" value="Sensor" style="rounded=0;whiteSpace=wrap;html=1;fontSize=24;" vertex="1" parent="1">
          <mxGeometry x="840" y="320" width="90" height="40" as="geometry" />
        </mxCell>
        <mxCell id="jLDSJorWT17VZWi5J70o-7" value="ADC" style="rounded=0;whiteSpace=wrap;html=1;fontSize=24;" vertex="1" parent="1">
          <mxGeometry x="587.5" y="320" width="65" height="40" as="geometry" />
        </mxCell>
        <mxCell id="jLDSJorWT17VZWi5J70o-8" value="F2" style="rounded=0;whiteSpace=wrap;html=1;fontSize=24;" vertex="1" parent="1">
          <mxGeometry x="470" y="320" width="60" height="40" as="geometry" />
        </mxCell>
        <mxCell id="jLDSJorWT17VZWi5J70o-9" value="&lt;h1 class=&quot;mb-0&quot; style=&quot;font-size: 24px;&quot;&gt;&lt;span style=&quot;font-weight: normal; font-size: 23px;&quot;&gt;Î¸&lt;/span&gt;&lt;font size=&quot;1&quot;&gt;&lt;span style=&quot;font-weight: normal;&quot;&gt;&lt;font style=&quot;font-size: 16px;&quot;&gt;ref&lt;/font&gt;&lt;/span&gt;&lt;/font&gt;&lt;/h1&gt;" style="rounded=0;whiteSpace=wrap;html=1;fontSize=24;" vertex="1" parent="1">
          <mxGeometry x="290" y="200" width="60" height="40" as="geometry" />
        </mxCell>
        <mxCell id="jLDSJorWT17VZWi5J70o-10" value="" style="ellipse;whiteSpace=wrap;html=1;aspect=fixed;" vertex="1" parent="1">
          <mxGeometry x="380" y="200" width="40" height="40" as="geometry" />
        </mxCell>
        <mxCell id="jLDSJorWT17VZWi5J70o-11" value="" style="endArrow=classic;html=1;rounded=0;exitX=1;exitY=0.5;exitDx=0;exitDy=0;entryX=0;entryY=0.5;entryDx=0;entryDy=0;" edge="1" parent="1" source="jLDSJorWT17VZWi5J70o-9" target="jLDSJorWT17VZWi5J70o-10">
          <mxGeometry width="50" height="50" relative="1" as="geometry">
            <mxPoint x="640" y="450" as="sourcePoint" />
            <mxPoint x="690" y="400" as="targetPoint" />
          </mxGeometry>
        </mxCell>
        <mxCell id="jLDSJorWT17VZWi5J70o-12" value="" style="endArrow=classic;html=1;rounded=0;entryX=0.5;entryY=1;entryDx=0;entryDy=0;" edge="1" parent="1" target="jLDSJorWT17VZWi5J70o-10">
          <mxGeometry width="50" height="50" relative="1" as="geometry">
            <mxPoint x="400" y="340" as="sourcePoint" />
            <mxPoint x="400" y="260" as="targetPoint" />
          </mxGeometry>
        </mxCell>
        <mxCell id="jLDSJorWT17VZWi5J70o-13" value="" style="endArrow=classic;html=1;rounded=0;entryX=0.5;entryY=1;entryDx=0;entryDy=0;" edge="1" parent="1">
          <mxGeometry width="50" height="50" relative="1" as="geometry">
            <mxPoint x="399.5" y="340" as="sourcePoint" />
            <mxPoint x="399.5" y="240" as="targetPoint" />
          </mxGeometry>
        </mxCell>
        <mxCell id="jLDSJorWT17VZWi5J70o-14" value="" style="endArrow=none;html=1;rounded=0;entryX=0;entryY=0.5;entryDx=0;entryDy=0;" edge="1" parent="1" target="jLDSJorWT17VZWi5J70o-8">
          <mxGeometry width="50" height="50" relative="1" as="geometry">
            <mxPoint x="400" y="340" as="sourcePoint" />
            <mxPoint x="690" y="400" as="targetPoint" />
          </mxGeometry>
        </mxCell>
        <mxCell id="jLDSJorWT17VZWi5J70o-17" value="" style="endArrow=classic;html=1;rounded=0;entryX=1;entryY=0.5;entryDx=0;entryDy=0;exitX=0;exitY=0.5;exitDx=0;exitDy=0;" edge="1" parent="1" source="jLDSJorWT17VZWi5J70o-7" target="jLDSJorWT17VZWi5J70o-8">
          <mxGeometry width="50" height="50" relative="1" as="geometry">
            <mxPoint x="490" y="450" as="sourcePoint" />
            <mxPoint x="540" y="400" as="targetPoint" />
          </mxGeometry>
        </mxCell>
        <mxCell id="jLDSJorWT17VZWi5J70o-28" value="int" style="edgeLabel;html=1;align=center;verticalAlign=middle;resizable=0;points=[];fontSize=24;" vertex="1" connectable="0" parent="jLDSJorWT17VZWi5J70o-17">
          <mxGeometry x="-0.0323" y="1" relative="1" as="geometry">
            <mxPoint y="-31" as="offset" />
          </mxGeometry>
        </mxCell>
        <mxCell id="jLDSJorWT17VZWi5J70o-18" value="" style="endArrow=classic;html=1;rounded=0;entryX=1;entryY=0.5;entryDx=0;entryDy=0;fontSize=24;" edge="1" parent="1" target="jLDSJorWT17VZWi5J70o-7">
          <mxGeometry width="50" height="50" relative="1" as="geometry">
            <mxPoint x="840" y="340" as="sourcePoint" />
            <mxPoint x="810" y="340" as="targetPoint" />
          </mxGeometry>
        </mxCell>
        <mxCell id="jLDSJorWT17VZWi5J70o-29" value="&lt;font style=&quot;font-size: 24px;&quot;&gt;V&lt;/font&gt;" style="edgeLabel;html=1;align=center;verticalAlign=middle;resizable=0;points=[];" vertex="1" connectable="0" parent="jLDSJorWT17VZWi5J70o-18">
          <mxGeometry x="-0.04" y="-1" relative="1" as="geometry">
            <mxPoint y="-29" as="offset" />
          </mxGeometry>
        </mxCell>
        <mxCell id="jLDSJorWT17VZWi5J70o-21" value="" style="endArrow=classic;html=1;rounded=0;entryX=1;entryY=0.5;entryDx=0;entryDy=0;" edge="1" parent="1" target="jLDSJorWT17VZWi5J70o-6">
          <mxGeometry width="50" height="50" relative="1" as="geometry">
            <mxPoint x="970" y="340" as="sourcePoint" />
            <mxPoint x="813" y="350" as="targetPoint" />
          </mxGeometry>
        </mxCell>
        <mxCell id="jLDSJorWT17VZWi5J70o-22" value="" style="endArrow=none;html=1;rounded=0;entryX=1;entryY=0.5;entryDx=0;entryDy=0;" edge="1" parent="1" target="jLDSJorWT17VZWi5J70o-5">
          <mxGeometry width="50" height="50" relative="1" as="geometry">
            <mxPoint x="970" y="220" as="sourcePoint" />
            <mxPoint x="690" y="400" as="targetPoint" />
          </mxGeometry>
        </mxCell>
        <mxCell id="jLDSJorWT17VZWi5J70o-23" value="" style="endArrow=none;html=1;rounded=0;" edge="1" parent="1">
          <mxGeometry width="50" height="50" relative="1" as="geometry">
            <mxPoint x="970" y="340" as="sourcePoint" />
            <mxPoint x="970" y="220" as="targetPoint" />
          </mxGeometry>
        </mxCell>
        <mxCell id="jLDSJorWT17VZWi5J70o-30" value="&lt;br&gt;&lt;h1 class=&quot;mb-0&quot; style=&quot;font-size: 24px;&quot;&gt;&lt;span style=&quot;font-weight: normal;&quot;&gt;Rad&lt;/span&gt;&lt;/h1&gt;" style="edgeLabel;html=1;align=center;verticalAlign=middle;resizable=0;points=[];" vertex="1" connectable="0" parent="jLDSJorWT17VZWi5J70o-23">
          <mxGeometry x="0.2333" y="-1" relative="1" as="geometry">
            <mxPoint x="-11" y="-86" as="offset" />
          </mxGeometry>
        </mxCell>
        <mxCell id="jLDSJorWT17VZWi5J70o-24" value="" style="endArrow=classic;html=1;rounded=0;exitX=1;exitY=0.5;exitDx=0;exitDy=0;entryX=0;entryY=0.5;entryDx=0;entryDy=0;" edge="1" parent="1" source="jLDSJorWT17VZWi5J70o-10" target="jLDSJorWT17VZWi5J70o-1">
          <mxGeometry width="50" height="50" relative="1" as="geometry">
            <mxPoint x="360" y="230" as="sourcePoint" />
            <mxPoint x="390" y="230" as="targetPoint" />
          </mxGeometry>
        </mxCell>
        <mxCell id="jLDSJorWT17VZWi5J70o-25" value="" style="endArrow=classic;html=1;rounded=0;exitX=1;exitY=0.5;exitDx=0;exitDy=0;entryX=0;entryY=0.5;entryDx=0;entryDy=0;" edge="1" parent="1" source="jLDSJorWT17VZWi5J70o-1" target="jLDSJorWT17VZWi5J70o-3">
          <mxGeometry width="50" height="50" relative="1" as="geometry">
            <mxPoint x="430" y="230" as="sourcePoint" />
            <mxPoint x="480" y="230" as="targetPoint" />
          </mxGeometry>
        </mxCell>
        <mxCell id="jLDSJorWT17VZWi5J70o-26" value="" style="endArrow=classic;html=1;rounded=0;exitX=1;exitY=0.5;exitDx=0;exitDy=0;entryX=0;entryY=0.5;entryDx=0;entryDy=0;" edge="1" parent="1" source="jLDSJorWT17VZWi5J70o-3" target="jLDSJorWT17VZWi5J70o-4">
          <mxGeometry width="50" height="50" relative="1" as="geometry">
            <mxPoint x="570" y="230" as="sourcePoint" />
            <mxPoint x="610" y="230" as="targetPoint" />
          </mxGeometry>
        </mxCell>
        <mxCell id="jLDSJorWT17VZWi5J70o-27" value="" style="endArrow=classic;html=1;rounded=0;exitX=1;exitY=0.5;exitDx=0;exitDy=0;entryX=0;entryY=0.5;entryDx=0;entryDy=0;" edge="1" parent="1" source="jLDSJorWT17VZWi5J70o-4" target="jLDSJorWT17VZWi5J70o-5">
          <mxGeometry width="50" height="50" relative="1" as="geometry">
            <mxPoint x="670" y="230" as="sourcePoint" />
            <mxPoint x="740" y="230" as="targetPoint" />
          </mxGeometry>
        </mxCell>
        <mxCell id="jLDSJorWT17VZWi5J70o-32" value="PWM" style="edgeLabel;html=1;align=center;verticalAlign=middle;resizable=0;points=[];fontSize=24;" vertex="1" connectable="0" parent="1">
          <mxGeometry x="700" y="310" as="geometry">
            <mxPoint x="-14" y="-132" as="offset" />
          </mxGeometry>
        </mxCell>
        <mxCell id="jLDSJorWT17VZWi5J70o-34" value="&lt;font style=&quot;font-size: 24px;&quot;&gt;N&lt;/font&gt;" style="edgeLabel;html=1;align=center;verticalAlign=middle;resizable=0;points=[];" vertex="1" connectable="0" parent="1">
          <mxGeometry x="830" y="320" as="geometry">
            <mxPoint x="-12" y="-145" as="offset" />
          </mxGeometry>
        </mxCell>
        <mxCell id="jLDSJorWT17VZWi5J70o-35" value="&lt;font style=&quot;font-size: 24px;&quot;&gt;N&lt;/font&gt;" style="edgeLabel;html=1;align=center;verticalAlign=middle;resizable=0;points=[];" vertex="1" connectable="0" parent="1">
          <mxGeometry x="600" y="320" as="geometry">
            <mxPoint x="-12" y="-145" as="offset" />
          </mxGeometry>
        </mxCell>
        <mxCell id="jLDSJorWT17VZWi5J70o-36" value="&lt;h1 class=&quot;mb-0&quot; style=&quot;font-size: 24px;&quot;&gt;&lt;span style=&quot;font-weight: normal;&quot;&gt;Rad&lt;/span&gt;&lt;/h1&gt;" style="edgeLabel;html=1;align=center;verticalAlign=middle;resizable=0;points=[];" vertex="1" connectable="0" parent="1">
          <mxGeometry x="1050" y="300" as="geometry">
            <mxPoint x="-611" y="7" as="offset" />
          </mxGeometry>
        </mxCell>
        <mxCell id="jLDSJorWT17VZWi5J70o-40" value="" style="endArrow=none;dashed=1;html=1;rounded=0;" edge="1" parent="1">
          <mxGeometry width="50" height="50" relative="1" as="geometry">
            <mxPoint x="280" y="400" as="sourcePoint" />
            <mxPoint x="280" y="120" as="targetPoint" />
          </mxGeometry>
        </mxCell>
        <mxCell id="jLDSJorWT17VZWi5J70o-41" value="" style="endArrow=none;dashed=1;html=1;rounded=0;" edge="1" parent="1">
          <mxGeometry width="50" height="50" relative="1" as="geometry">
            <mxPoint x="680" y="400" as="sourcePoint" />
            <mxPoint x="680" y="120" as="targetPoint" />
          </mxGeometry>
        </mxCell>
        <mxCell id="jLDSJorWT17VZWi5J70o-42" value="" style="endArrow=none;dashed=1;html=1;rounded=0;" edge="1" parent="1">
          <mxGeometry width="50" height="50" relative="1" as="geometry">
            <mxPoint x="280" y="120" as="sourcePoint" />
            <mxPoint x="680" y="120" as="targetPoint" />
          </mxGeometry>
        </mxCell>
        <mxCell id="jLDSJorWT17VZWi5J70o-43" value="" style="endArrow=none;dashed=1;html=1;rounded=0;" edge="1" parent="1">
          <mxGeometry width="50" height="50" relative="1" as="geometry">
            <mxPoint x="280" y="400" as="sourcePoint" />
            <mxPoint x="680" y="400" as="targetPoint" />
          </mxGeometry>
        </mxCell>
        <mxCell id="jLDSJorWT17VZWi5J70o-45" value="&lt;font style=&quot;font-size: 24px;&quot;&gt;+&lt;/font&gt;" style="text;html=1;align=center;verticalAlign=middle;resizable=0;points=[];autosize=1;strokeColor=none;fillColor=none;" vertex="1" parent="1">
          <mxGeometry x="370" y="200" width="40" height="40" as="geometry" />
        </mxCell>
        <mxCell id="jLDSJorWT17VZWi5J70o-46" value="&lt;font style=&quot;font-size: 24px;&quot;&gt;-&lt;/font&gt;" style="text;html=1;align=center;verticalAlign=middle;resizable=0;points=[];autosize=1;strokeColor=none;fillColor=none;" vertex="1" parent="1">
          <mxGeometry x="385" y="210" width="30" height="40" as="geometry" />
        </mxCell>
      </root>
    </mxGraphModel>
  </diagram>
</mxfile>
